<svg id="global" xmlns="http://www.w3.org/2000/svg" width="22.651" height="22.651" viewBox="0 0 22.651 22.651">
  <g id="Group_46" data-name="Group 46" transform="translate(0 0)">
    <path id="Path_35" data-name="Path 35" d="M19.334,3.317A11.326,11.326,0,0,0,3.317,19.334,11.326,11.326,0,0,0,19.334,3.317ZM9.178,1.56a14.493,14.493,0,0,0-1.2,1.322A13.771,13.771,0,0,0,6.212,5.727H3.046A10.025,10.025,0,0,1,9.178,1.56ZM2.287,7.054h3.4a13.316,13.316,0,0,0-.671,3.608H1.35A9.924,9.924,0,0,1,2.287,7.054ZM1.35,11.989H5.015A13.314,13.314,0,0,0,5.686,15.6h-3.4A9.924,9.924,0,0,1,1.35,11.989Zm1.7,4.935H6.212a13.772,13.772,0,0,0,1.765,2.844,14.481,14.481,0,0,0,1.2,1.322A10.025,10.025,0,0,1,3.046,16.925Zm7.616,3.727a13.046,13.046,0,0,1-1.65-1.713,12.641,12.641,0,0,1-1.325-2.014h2.975Zm0-5.054H7.088a11.875,11.875,0,0,1-.744-3.608h4.318Zm0-4.935H6.344a11.874,11.874,0,0,1,.745-3.608h3.573Zm0-4.935H7.687A12.636,12.636,0,0,1,8.981,3.752,13.042,13.042,0,0,1,10.662,2ZM21.3,10.662H17.636a13.314,13.314,0,0,0-.671-3.608h3.4A9.923,9.923,0,0,1,21.3,10.662Zm-1.7-4.935H16.44a13.772,13.772,0,0,0-1.765-2.844,14.48,14.48,0,0,0-1.2-1.322A10.025,10.025,0,0,1,19.605,5.727ZM11.989,2a13.046,13.046,0,0,1,1.65,1.713,12.645,12.645,0,0,1,1.325,2.014H11.989Zm0,5.054h3.574a11.874,11.874,0,0,1,.744,3.608H11.989Zm0,4.935h4.318a11.875,11.875,0,0,1-.745,3.608H11.989Zm0,8.661V16.925h2.975A12.634,12.634,0,0,1,13.671,18.9,13.042,13.042,0,0,1,11.989,20.65Zm1.484.441a14.494,14.494,0,0,0,1.2-1.322,13.771,13.771,0,0,0,1.765-2.844h3.166A10.025,10.025,0,0,1,13.474,21.091ZM20.364,15.6h-3.4a13.316,13.316,0,0,0,.671-3.608H21.3A9.923,9.923,0,0,1,20.364,15.6Z" transform="translate(0 0)" fill="#fff"/>
  </g>
</svg>
